<svg xmlns="http://www.w3.org/2000/svg" viewBox="159.15 391.533 150 56.325"><path fill="#a0aec0" d="M207.612 412.194c-2.936 0-6.214 1.131-6.9 4.854-.074.395.188.584.441.641l3.01.361c.278-.014.466-.317.52-.602.257-1.28 1.311-1.886 2.488-1.886.636 0 1.35.218 1.726.803.431.65.4 1.535.4 2.286v.442c-1.788.205-4.142.33-5.816 1.083-1.933.86-3.289 2.606-3.289 5.175 0 3.291 2.016 4.935 4.613 4.935 2.193 0 3.405-.515 5.096-2.287.561.835.74 1.213 1.765 2.086.232.133.523.1.721-.079v.04c.616-.563 1.737-1.585 2.367-2.126.252-.21.197-.557 0-.842-.563-.799-1.163-1.443-1.163-2.929v-4.934c0-2.09.178-4.017-1.323-5.456-1.185-1.165-3.157-1.565-4.656-1.565zm40.438 0c-2.937 0-6.212 1.131-6.9 4.854-.074.395.187.584.441.641l3.01.361c.278-.014.468-.317.521-.602.258-1.28 1.31-1.886 2.487-1.886.637 0 1.35.218 1.726.803.43.65.361 1.535.361 2.286v.442c-1.789.205-4.102.33-5.777 1.083-1.934.86-3.289 2.606-3.289 5.175 0 3.291 2.018 4.935 4.614 4.935 2.19 0 3.401-.515 5.095-2.287.56.835.74 1.213 1.765 2.086a.616.616 0 0 0 .721-.079v.04c.617-.563 1.737-1.585 2.368-2.126.25-.21.192-.557 0-.842-.564-.799-1.163-1.443-1.163-2.929v-4.934c0-2.09.134-4.017-1.364-5.456-1.186-1.165-3.117-1.565-4.616-1.565zm-22.747.16c-1.897 0-3.304.958-4.052 3.01h-.039v-2.127a.607.607 0 0 0-.563-.562h-2.888a.61.61 0 0 0-.602.602v16.247a.625.625 0 0 0 .562.563h3.09a.61.61 0 0 0 .601-.602v-8.626c0-1.88-.09-4.453 2.126-4.453 2.19 0 1.886 2.643 1.886 4.453v8.626c0 .306.25.581.562.602h3.09a.61.61 0 0 0 .601-.602v-8.626c0-.923-.037-2.267.281-3.089.317-.82 1.096-1.363 1.846-1.363.893 0 1.575.312 1.805 1.404.144.65.08 2.366.08 3.05v8.625c0 .307.25.581.562.602h3.088a.61.61 0 0 0 .603-.602v-10.27c0-1.745.175-3.726-.803-5.095-.864-1.23-2.276-1.766-3.57-1.766-1.815 0-3.503.958-4.252 3.01-.865-2.052-2.085-3.01-4.014-3.01zm52.514 0c-4.463 0-6.94 3.925-6.94 8.986 0 5.028 2.45 9.066 6.94 9.066 4.32 0 7.061-3.946 7.061-8.906 0-5.126-2.483-9.146-7.06-9.146zm17.611 0c-2.132 0-3.35 1.067-4.212 3.29h-.04v-2.489c-.055-.25-.293-.426-.562-.44h-2.849a.592.592 0 0 0-.602.52v16.247a.615.615 0 0 0 .562.602h3.05a.612.612 0 0 0 .601-.602v-8.745c0-1.096.093-2.096.522-3.089.346-.787 1.015-1.283 1.765-1.283 2.128 0 1.925 2.594 1.925 4.372v8.826c.04.285.275.502.563.521h3.088a.611.611 0 0 0 .603-.52v-10.23c0-1.574.003-3.759-.803-5.057-.864-1.4-2.23-1.923-3.61-1.923zm-37.068.281c-.314 0-.56.25-.563.602v2.327c.002.347.242.6.563.602h5.295l-6.058 8.946c-.37.576-.4 1.23-.4 1.605v2.367c0 .341.371.713.721.521 3.452-1.884 7.59-1.717 10.712-.04.378.207.762-.18.762-.52v-2.489a1.055 1.055 0 0 0-.562-.883c-1.772-1.019-3.828-1.33-5.777-1.284l5.256-7.702c.486-.692.758-1.109.762-1.444v-2.006c0-.345-.236-.602-.562-.602H258.36zm19.457 3.05c.98 0 1.7.436 2.047 1.564.4 1.301.441 2.924.441 4.293 0 2.085-.097 5.536-2.488 5.536-2.417 0-2.407-4.273-2.407-6.259 0-1.98.133-5.135 2.407-5.135zm-68.56 5.937v.681c0 1.234.044 2.272-.563 3.37-.49.892-1.26 1.444-2.126 1.444-1.18 0-1.886-.957-1.886-2.326.001-2.698 2.346-3.169 4.574-3.169zm40.437 0v.681c0 1.234.045 2.272-.562 3.37-.49.892-1.257 1.444-2.126 1.444-1.182 0-1.886-.957-1.886-2.326.002-2.698 2.343-3.169 4.574-3.169zm20.02 8.986v2.326h1.564v-2.326h-1.565zm-45.374.4v16.568h1.444v-1.484c.31.588.66 1.03 1.084 1.324.424.295.91.442 1.444.442 1.061 0 1.976-.542 2.768-1.645.792-1.103 1.204-2.7 1.204-4.734 0-1.332-.17-2.434-.52-3.37-.352-.933-.82-1.628-1.406-2.086-.585-.459-1.25-.722-1.965-.722a2.565 2.565 0 0 0-1.404.401c-.418.267-.755.702-1.084 1.244v-5.938h-1.565zm14.844 3.893c-1.088 0-1.952.322-2.567.963-.615.64-.923 1.464-.923 2.487 0 .595.133 1.097.36 1.565.228.47.555.845.963 1.124.411.278 1.23.644 2.447 1.042.842.271 1.345.502 1.565.682.318.263.481.608.481 1.083 0 .55-.19 1.008-.562 1.364-.37.358-.887.521-1.565.521-.678 0-1.236-.19-1.644-.602-.409-.412-.629-1.039-.722-1.886l-1.565.321c.353 2.574 1.637 3.852 3.852 3.851 1.181 0 2.084-.335 2.767-1.042.683-.708 1.043-1.663 1.043-2.809 0-.619-.109-1.156-.32-1.605a2.53 2.53 0 0 0-.884-1.042c-.382-.26-1.23-.606-2.528-1.043-.942-.33-1.494-.57-1.684-.72-.32-.255-.482-.602-.482-1.044 0-.452.15-.834.482-1.123.332-.289.844-.442 1.525-.442 1.196 0 1.865.658 2.005 1.966l1.525-.24c-.105-.829-.286-1.483-.562-1.927a3.006 3.006 0 0 0-1.204-1.084c-.519-.263-1.116-.36-1.803-.36zm9.59 0c-1.256 0-2.313.516-3.13 1.604-.819 1.09-1.205 2.665-1.205 4.735 0 1.994.394 3.556 1.204 4.614.81 1.056 1.86 1.565 3.17 1.565 1.04 0 1.903-.312 2.607-.963.704-.65 1.215-1.609 1.484-2.889l-1.605-.28c-.46 1.64-1.31 2.443-2.488 2.446-.75 0-1.362-.318-1.886-1.003-.524-.685-.82-1.702-.883-3.049h6.9v-.562c0-2.024-.403-3.544-1.204-4.614-.798-1.069-1.77-1.604-2.965-1.604zm9.506 0c-.375 0-.702.127-1.003.4-.3.274-.64.841-1.002 1.685v-1.847h-1.405v11.996h1.565v-6.257c0-.873.082-1.713.281-2.488.113-.444.327-.795.603-1.042.276-.248.59-.36.923-.36.368 0 .734.146 1.123.44l.521-1.885c-.547-.437-1.082-.642-1.606-.642zm19.175 0c-1.238 0-2.259.521-3.048 1.565-.787 1.042-1.205 2.608-1.205 4.693 0 2.068.421 3.636 1.205 4.693.781 1.057 1.76 1.565 2.968 1.565.997 0 1.855-.37 2.567-1.123.713-.752 1.146-1.859 1.324-3.289l-1.525-.24c-.113 1.022-.38 1.757-.803 2.245-.422.486-.93.722-1.525.722-.757 0-1.402-.353-1.886-1.084-.484-.73-.72-1.898-.72-3.53 0-1.582.254-2.723.761-3.45.507-.729 1.153-1.124 1.926-1.124.516 0 .956.2 1.324.602.37.401.614 1.037.762 1.846l1.525-.32c-.183-1.264-.589-2.218-1.244-2.85-.655-.632-1.449-.92-2.406-.92zm8.947 0c-1.254 0-2.312.516-3.13 1.604-.818 1.09-1.204 2.665-1.204 4.735 0 1.994.394 3.556 1.204 4.614.811 1.056 1.86 1.565 3.17 1.565 1.038 0 1.902-.312 2.607-.963.704-.65 1.214-1.609 1.484-2.889l-1.605-.28c-.46 1.64-1.273 2.443-2.446 2.446-.75 0-1.402-.318-1.926-1.003-.524-.685-.819-1.702-.883-3.049h6.9v-.562c0-2.024-.403-3.544-1.204-4.614-.796-1.069-1.77-1.604-2.967-1.604zm9.267 0c-1.09 0-1.952.322-2.567.963-.616.64-.923 1.464-.923 2.487 0 .595.094 1.097.321 1.565.226.468.552.845.963 1.124.408.278 1.231.644 2.446 1.042.84.271 1.386.502 1.605.682.318.263.481.608.481 1.083 0 .55-.19 1.008-.562 1.364-.37.358-.887.521-1.565.521-.679 0-1.236-.19-1.644-.602-.408-.412-.672-1.039-.763-1.886l-1.565.321c.353 2.574 1.635 3.852 3.852 3.851 1.182 0 2.124-.335 2.808-1.042.685-.708 1.043-1.663 1.043-2.809 0-.619-.109-1.156-.32-1.605-.213-.449-.543-.782-.924-1.042-.38-.26-1.19-.606-2.488-1.043-.942-.33-1.534-.57-1.725-.72-.32-.255-.482-.602-.482-1.044 0-.452.19-.834.521-1.123.333-.289.848-.442 1.526-.442 1.196 0 1.865.658 2.005 1.966l1.525-.24c-.107-.829-.285-1.483-.562-1.927a3.013 3.013 0 0 0-1.205-1.084c-.514-.263-1.115-.36-1.8-.36zm-35.784.24l3.49 11.995h1.484l3.491-11.995h-1.605l-2.046 7.342c-.248.887-.466 1.653-.602 2.286-.17-.797-.334-1.634-.563-2.447l-2.005-7.18h-1.644zm9.828 0v11.995h1.565v-11.995h-1.565zm-51.43.16c-1.24 0-2.24.557-3.048 1.645-.81 1.088-1.244 2.665-1.244 4.734 0 1.994.4 3.516 1.204 4.573.803 1.056 1.873 1.605 3.17 1.605 1.03 0 1.87-.352 2.567-1.003.696-.65 1.177-1.609 1.444-2.888l-1.565-.242c-.456 1.64-1.284 2.444-2.447 2.447-.743 0-1.367-.318-1.885-1.003-.519-.685-.82-1.702-.884-3.048h6.82l.04-.563c0-2.024-.41-3.584-1.205-4.653-.793-1.07-1.784-1.604-2.967-1.604zm-17.61.281l2.808 11.996h1.644l1.846-9.228.321 2.046 1.484 7.182h1.605l2.848-11.996h-1.484l-1.565 6.94-.52 2.326-.482-2.326-1.364-6.94h-1.604l-1.444 7.021-.482 2.488-.562-2.567-1.444-6.94h-1.606zm99.85.121v.562h1.525v4.012h.602v-4.012h1.525v-.562h-3.652zm4.253 0v4.573h.563v-3.89l1.323 3.89h.562l1.324-3.812v3.812h.602v-4.573h-.842l-1.084 3.21c-.109.32-.187.553-.24.721l-.242-.682-1.084-3.249h-.882zm-56.045.842c.78 0 1.422.378 1.926 1.123.347.511.571 1.29.642 2.327h-5.175c.05-1.053.347-1.866.842-2.488.496-.623 1.066-.962 1.765-.962zm37.631 0c.777 0 1.421.378 1.926 1.123.346.511.571 1.29.642 2.327h-5.175c.05-1.053.346-1.866.842-2.488.494-.62 1.064-.962 1.765-.962zm-68.079.442c.771 0 1.39.377 1.886 1.123.343.511.572 1.29.642 2.326h-5.095c.05-1.052.31-1.905.802-2.527.49-.622 1.071-.922 1.765-.922zm9.95 0c.695 0 1.287.386 1.765 1.123.477.738.681 1.876.681 3.451 0 1.534-.226 2.678-.72 3.451-.497.772-1.087 1.163-1.726 1.163-.47 0-.898-.158-1.284-.482-.388-.323-.672-.787-.883-1.404-.212-.618-.32-1.568-.32-2.809 0-1.462.26-2.557.761-3.33.502-.773 1.086-1.163 1.726-1.163z"/><path fill="#e2e8f0" d="M178.185 424.27l-5.977 2.566 5.536 2.367 6.42-2.367-5.979-2.567zm-8.986 3.208l-.2 11.554 8.745 3.851v-11.995l-8.545-3.41zm17.973 0l-7.903 3.01V441.8l7.903-3.21v-11.112zm9.428-35.945l-6.019 2.567 5.577 2.368 6.42-2.368-5.978-2.567zm-8.345 3.411v11.554l7.461 2.167.242-10.512-7.703-3.209zm16.69.642l-7.062 3.01v11.352l7.061-3.209v-11.153zm-36.608 12.208l-5.978 2.568 5.536 2.367 6.42-2.367-5.978-2.568zm-8.987 3.21l-.2 11.553 8.745 3.852v-11.996l-8.545-3.409zm17.973 0l-7.903 3.01v11.311l7.903-3.209v-11.112zm10.27-3.636l-5.977 2.568 5.535 2.367 6.42-2.367-5.978-2.568zm-8.986 3.21l-.2 11.553 8.744 3.851v-11.994l-8.544-3.41zm17.972 0l-7.903 3.01v11.311l7.903-3.209v-11.113zm18.83-19.045l-5.978 2.567 5.535 2.368 6.42-2.368-5.978-2.567zm-8.987 3.21l-.2 11.553 8.744 3.851v-11.994l-8.544-3.41zm17.972 0l-7.903 3.008v11.313l7.903-3.209v-11.113z"/></svg>