<svg xmlns="http://www.w3.org/2000/svg" viewBox="85.755 99.193 320.425 100.002"><path fill="#a0aec0" d="M254.63 124.32c0 3.604-2.905 6.506-6.509 6.506s-6.506-2.902-6.506-6.506 2.803-6.506 6.506-6.506c3.706.1 6.508 3.003 6.508 6.506zm-26.83 13.114v1.602s-3.102-4.006-9.709-4.006c-10.91 0-19.42 8.309-19.42 19.82 0 11.412 8.41 19.82 19.42 19.82 6.707 0 9.71-4.104 9.71-4.104v1.7c0 .802.601 1.4 1.401 1.4h8.107v-37.638h-8.107c-.8.003-1.402.705-1.402 1.406zm0 24.123c-1.5 2.203-4.504 4.105-8.107 4.105-6.406 0-11.312-4.004-11.312-10.812 0-6.807 4.906-10.811 11.312-10.811 3.504 0 6.707 2.002 8.107 4.104v13.414zm15.516-25.526h9.61v37.639h-9.61v-37.64zm143.545-1.002c-6.607 0-9.71 4.006-9.71 4.006v-21.121h-9.61v55.756h8.11c.8 0 1.4-.701 1.4-1.402v-1.701s3.103 4.104 9.708 4.104c10.912 0 19.42-8.406 19.42-19.818s-8.508-19.824-19.318-19.824zm-1.602 30.532c-3.705 0-6.607-1.9-8.109-4.104v-13.414c1.502-2.002 4.705-4.104 8.11-4.104 6.405 0 11.31 4.004 11.31 10.81s-4.904 10.812-11.31 10.812zm-22.722-14.213v22.422h-9.61v-21.322c0-6.205-2.003-8.71-7.405-8.71-2.902 0-5.906 1.503-7.81 3.706v26.227h-9.608v-37.64h7.605c.801 0 1.402.702 1.402 1.403v1.602c2.803-2.904 6.506-4.006 10.21-4.006 4.204 0 7.708 1.203 10.511 3.605 3.402 2.803 4.705 6.406 4.705 12.713zm-57.76-16.32c-6.605 0-9.709 4.007-9.709 4.007v-21.121h-9.609v55.756h8.107c.801 0 1.402-.701 1.402-1.402v-1.701s3.104 4.104 9.71 4.104c10.911 0 19.42-8.406 19.42-19.818.1-11.413-8.409-19.824-19.32-19.824zm-1.602 30.533c-3.703 0-6.605-1.9-8.107-4.104v-13.414c1.502-2.002 4.705-4.104 8.107-4.104 6.408 0 11.312 4.004 11.312 10.81s-4.904 10.812-11.312 10.812zm-26.025-30.532c2.902 0 4.404.502 4.404.502v8.908s-8.008-2.703-13.012 3.004v26.326h-9.61V136.03h8.108c.801 0 1.4.7 1.4 1.402v1.602c1.804-2.103 5.708-4.006 8.71-4.006zm-99.799 35.237c-.5-1.201-1-2.502-1.5-3.604-.803-1.801-1.604-3.504-2.303-5.105l-.1-.1c-6.908-15.016-14.314-30.23-22.123-45.244l-.3-.602a196.953 196.953 0 0 1-2.4-4.705c-1.003-1.803-2.003-3.703-3.605-5.506-3.203-4.004-7.808-6.207-12.712-6.207-5.006 0-9.51 2.203-12.812 6.006-1.502 1.8-2.604 3.703-3.604 5.506a217.271 217.271 0 0 1-2.4 4.705l-.302.602c-7.708 15.014-15.215 30.229-22.122 45.244l-.1.199c-.7 1.604-1.503 3.305-2.304 5.105-.5 1.102-1 2.303-1.5 3.604-1.302 3.703-1.703 7.207-1.2 10.812 1.1 7.508 6.104 13.812 13.012 16.617 2.603 1.102 5.306 1.602 8.108 1.602.801 0 1.801-.1 2.603-.201 3.304-.4 6.707-1.5 10.011-3.402 4.104-2.303 8.008-5.605 12.412-10.41 4.404 4.805 8.408 8.107 12.412 10.41 3.305 1.902 6.707 3.002 10.01 3.402.801.102 1.803.2 2.604.2 2.803 0 5.605-.5 8.107-1.601 7.008-2.805 11.912-9.21 13.014-16.617.795-3.503.395-7.005-.906-10.71zm-45.144 5.205c-5.406-6.807-8.91-13.213-10.11-18.617-.5-2.303-.6-4.305-.3-6.107.2-1.602.801-3.004 1.602-4.205 1.902-2.701 5.105-4.404 8.81-4.404 3.704 0 7.007 1.602 8.81 4.404.8 1.2 1.4 2.604 1.602 4.205.3 1.803.2 3.904-.3 6.107-1.206 5.304-4.71 11.71-10.114 18.617zm39.938 4.705c-.7 5.205-4.204 9.71-9.108 11.713-2.402 1-5.006 1.3-7.607 1-2.502-.301-5.006-1.102-7.607-2.602-3.604-2.004-7.207-5.105-11.412-9.711 6.606-8.107 10.61-15.516 12.112-22.121.701-3.104.802-5.906.5-8.51-.399-2.502-1.3-4.805-2.702-6.807-3.105-4.506-8.31-7.107-14.115-7.107s-11.01 2.703-14.113 7.107c-1.4 2.002-2.303 4.305-2.703 6.807-.4 2.604-.3 5.506.5 8.51 1.501 6.605 5.605 14.113 12.111 22.22-4.104 4.606-7.808 7.71-11.412 9.712-2.603 1.502-5.104 2.303-7.606 2.602-2.702.3-5.306-.1-7.608-1-4.904-2.002-8.408-6.508-9.108-11.713-.3-2.502-.1-5.004.901-7.807.3-1.002.801-2.002 1.301-3.203.701-1.602 1.5-3.305 2.302-5.006l.101-.2c6.906-14.915 14.313-30.13 22.021-44.944l.3-.602c.802-1.5 1.603-3.102 2.403-4.604.801-1.602 1.701-3.104 2.803-4.406 2.102-2.4 4.904-3.703 8.008-3.703s5.906 1.303 8.008 3.703c1.102 1.305 2.002 2.807 2.803 4.406.802 1.502 1.603 3.104 2.402 4.604l.301.602a1325.424 1325.424 0 0 1 21.922 45.045v.1c.802 1.604 1.502 3.404 2.303 5.008.5 1.199 1.001 2.199 1.301 3.2.8 2.6 1.1 5.105.698 7.707z"/></svg>