<svg xmlns="http://www.w3.org/2000/svg" viewBox="184.087 276.838 150 39.731"><path fill="#e2e8f0" d="M294.606 279.684c0-1.571 1.307-2.846 2.918-2.846h33.645c1.612 0 2.918 1.275 2.918 2.846v34.04c0 1.57-1.306 2.845-2.918 2.845h-33.645c-1.61 0-2.918-1.274-2.918-2.845v-34.04z"/><path fill="#a0aec0" d="M184.087 310.119h16.476v-5.41h-10.512v-20.637h-5.964v26.047zm24.82 0v-17.941h-5.965v17.94h5.964zm-2.983-20.39c2.08 0 3.374-1.378 3.374-3.1-.038-1.761-1.295-3.1-3.334-3.1-2.04 0-3.374 1.34-3.374 3.1 0 1.722 1.294 3.1 3.296 3.1h.038zm5.75 20.39h5.963v-10.02c0-.536.04-1.072.196-1.454.431-1.071 1.412-2.181 3.06-2.181 2.158 0 3.022 1.646 3.022 4.056v9.599h5.962V299.83c0-5.51-2.942-8.074-6.866-8.074-3.217 0-4.63 1.798-5.414 3.023h.04v-2.602h-5.963c.078 1.683 0 17.94 0 17.94zm26.616-26.047h-5.964v26.047h5.964v-5.817l1.49-1.877 4.67 7.694h7.335l-7.846-11.137 6.864-7.576h-7.177s-4.905 6.778-5.336 7.582v-14.916z"/><path fill="#a0aec0" d="M267.731 302.635c.08-.46.196-1.344.196-2.344 0-4.638-2.354-9.346-8.552-9.346-6.63 0-9.69 5.244-9.69 10 0 5.882 3.727 9.555 10.238 9.555 2.59 0 4.982-.381 6.945-1.186l-.785-3.938c-1.609.534-3.257.8-5.296.8-2.785 0-5.217-1.143-5.414-3.58l12.358.038zm-12.397-4.034c.157-1.532 1.178-3.79 3.727-3.79 2.707 0 3.336 2.412 3.336 3.79h-7.062zm27.312-14.53v9.017h-.079c-.863-1.261-2.667-2.104-5.059-2.104-4.59 0-8.63 3.674-8.592 9.949 0 5.818 3.648 9.606 8.198 9.606 2.473 0 4.826-1.072 6.003-3.138h.117l.237 2.718h5.296a98.906 98.906 0 0 1-.158-5.587v-20.46h-5.963zm0 17.743c0 .459-.039.919-.118 1.3-.352 1.647-1.764 2.794-3.49 2.794-2.472 0-4.08-1.99-4.08-5.127 0-2.947 1.374-5.32 4.12-5.32 1.843 0 3.136 1.263 3.49 2.83.078.346.078.73.078 1.073v2.45zM306.574 310.097v-17.94h-5.963v17.94h5.963zm-2.98-20.39c2.08 0 3.373-1.377 3.373-3.1-.039-1.76-1.294-3.1-3.334-3.1s-3.374 1.34-3.374 3.1c0 1.723 1.294 3.1 3.295 3.1h.04zm6.28 20.39h5.963v-10.018c0-.535.04-1.072.197-1.455.431-1.072 1.412-2.181 3.06-2.181 2.157 0 3.02 1.645 3.02 4.057v9.597h5.963V299.81c0-5.51-2.94-8.074-6.864-8.074-3.217 0-4.63 1.797-5.415 3.022h.04v-2.601h-5.963c.078 1.683 0 17.94 0 17.94z"/></svg>